# xmcd
#
# Track frame offsets: 
#        150
#        12470
#        23434
#        34450
#        46365
#        61486
#        72082
#        82153
#        93319
#        106251
#        118007
#        128358
#        141140
#        151714
#        165061
#        177663
#        188878
#        200143
#        210485
#        223591
#
# Disc length: 3136 seconds
#
# Revision: 0
# Processed by: cddbd v1.5.2PL0 Copyright (c) Steve Scherf et al.
# Submitted via: ExactAudioCopy v1.0b4
#
DISCID=120c3e14
DTITLE=Various Artist - CD 5
DYEAR=2013
DGENRE=Soul
TTITLE0=The Clovers - Lovey Dovey
TTITLE1=Clyde McPhatter and The Drifters - Honey Love
TTITLE2=The Chords - Sh-Boom
TTITLE3=Sam Cooke - Cupid
TTITLE4=Aretha Franklin - That lucky old sun
TTITLE5=Ben E. King - Young boy blues
TTITLE6=Jackie Wilson - I'll be satisfied
TTITLE7=James Brown - That dood it
TTITLE8=Ray Charles - I got a woman
TTITLE9=Sam Cooke - Chain Gang
TTITLE10=Mary Wells - Come to me
TTITLE11=Smokey Robinson and The Miracles - Shop around
TTITLE12=Lloyd Price - Stagger Lee
TTITLE13=Sam Cooke - Forever
TTITLE14=Aretha Franklin - I surrender Dear
TTITLE15=Ben E. King - Save the last dance for me (with The Drifters)
TTITLE16=Marvin Gaye - How high the moon
TTITLE17=James Brown - Love or a game
TTITLE18=Joe Turner - Corrine Corrina
TTITLE19=Ray Charles - Hallelujah I love her so
EXTD=
EXTT0=
EXTT1=
EXTT2=
EXTT3=
EXTT4=
EXTT5=
EXTT6=
EXTT7=
EXTT8=
EXTT9=
EXTT10=
EXTT11=
EXTT12=
EXTT13=
EXTT14=
EXTT15=
EXTT16=
EXTT17=
EXTT18=
EXTT19=
PLAYORDER=
